:SAMPLES-PER-SECOND 24
:FULLY-SPECIFIED
:DEGREES
33
root  0.915853 40.8549 35.9047 118.463 -38.6049 -120.272
RightUpLeg  -51.9383 -39.1964 -33.8911
RightLeg  13.0462 7.86819 1.51914
RightFoot  21.5174 -4.21799 14.6991
RightToes  -1.74623e-010 0 -2.59999e-017
Spine  14.0456 -5.00297 -6.6159
Spine1  9.2828 -17.2627 39.0022
HEad  8.84857 -36.7881 13.9798
LeftShoulder1  1.3376 -2.72578 -14.5907
LeftArm  46.1676 -42.7246 -98.2621
LeftForeArm  48.9321 -72.6216 -31.6767
LeftHand  -0.348555 2.69294 14.707
RightShoulder  4.18305 6.3359 36.5852
RightArm  -39.9468 -17.3852 13.4264
RightForeArm  -2.15276 43.3188 10.6946
RightHand  -3.14787 5.36682 -33.3351
LeftUpLeg  -1.30611 17.1857 40.9789
LeftLeg  19.9758 33.9145 14.2441
LeftFoot  -5.90351 -0.0795788 2.40706
LeftToes  -6.27559e-011 -2.10356e-011 8.24929e-012
34
root  1.64351 40.7654 33.1838 108.756 -43.407 -111.971
RightUpLeg  -56.5418 -35.0032 -32.4049
RightLeg  45.9785 8.62477 9.14708
RightFoot  21.9836 -4.47565 15.3962
RightToes  -1.74623e-010 0 -2.59999e-017
Spine  14.2541 -6.18546 -11.1168
Spine1  9.64034 -18.2413 37.6879
HEad  7.22049 -31.9552 15.6044
LeftShoulder1  1.38923 -2.64567 -15.8145
LeftArm  38.9678 -41.7667 -85.5871
LeftForeArm  60.1075 -76.7747 -44.7565
LeftHand  -0.265094 2.97648 12.3756
RightShoulder  4.19938 6.32949 36.7737
RightArm  -40.038 -20.0326 11.7905
RightForeArm  1.08282 50.1827 13.431
RightHand  -2.77188 4.44858 -32.1542
LeftUpLeg  -4.72182 16.0981 44.2095
LeftLeg  21.2226 24.545 10.7942
LeftFoot  -5.94925 -0.079519 2.44969
LeftToes  -6.27559e-011 -2.10356e-011 8.24929e-012
35
root  1.81146 40.5352 29.9268 97.1138 -49.4709 -101.81
RightUpLeg  -55.3142 -26.7725 -29.3069
RightLeg  69.4895 7.27219 19.7374
RightFoot  21.1046 -5.74253 20.1645
RightToes  -1.74623e-010 0 -2.59999e-017
Spine  12.9151 -6.52106 -16.6799
Spine1  9.31998 -17.3573 34.543
HEad  6.18495 -24.9684 16.0739
LeftShoulder1  1.53952 -2.83707 -17.6478
LeftArm  28.0278 -36.3064 -69.4906
LeftForeArm  70.1941 -78.6035 -55.2962
LeftHand  -0.179309 3.89606 13.2178
RightShoulder  4.01211 6.13133 35.7319
RightArm  -38.4392 -23.6699 8.51815
RightForeArm  4.38677 55.4925 16.1629
RightHand  -2.23425 3.02857 -30.3767
LeftUpLeg  -8.68369 14.2082 44.7851
LeftLeg  23.3025 17.7183 8.49987
LeftFoot  -5.20671 0.0619195 -0.600416
LeftToes  -6.27559e-011 -2.10356e-011 8.24929e-012
36
root  1.86134 39.9843 28.02 84.9016 -55.2512 -88.8132
RightUpLeg  -52.2128 -21.7223 -20.418
RightLeg  79.5022 5.03837 29.319
RightFoot  11.6391 -5.8336 28.8585
RightToes  -1.74623e-010 0 -2.59999e-017
Spine  11.2767 -6.36209 -20.2428
Spine1  7.9157 -16.4337 32.5094
HEad  6.96183 -13.749 14.4938
LeftShoulder1  1.71098 -3.07511 -19.5153
LeftArm  16.2697 -25.1947 -50.3107
LeftForeArm  74.1172 -79.1403 -60.1179
LeftHand  -0.0525282 5.07634 14.3847
RightShoulder  3.76014 5.89055 34.144
RightArm  -35.4043 -27.0304 3.8117
RightForeArm  7.65288 59.6893 19.0006
RightHand  -1.85064 1.84141 -29.3392
LeftUpLeg  -15.0105 15.8335 40.8838
LeftLeg  26.2804 7.25386 4.22012
LeftFoot  -5.66163 0.258948 -4.51207
LeftToes  -6.27559e-011 -2.10356e-011 8.24929e-012
37
root  1.81972 39.0572 25.8281 61.9259 -58.7424 -64.4222
RightUpLeg  -43.9582 -19.5959 -14.1858
RightLeg  81.2491 6.01409 40.0504
RightFoot  0.859373 -3.4992 31.9381
RightToes  -1.74623e-010 0 -2.59999e-017
Spine  11.9796 -6.05876 -24.3567
Spine1  5.20652 -15.2545 29.6753
HEad  5.07623 0.588753 10.8247
LeftShoulder1  1.83902 -3.17095 -21.1684
LeftArm  6.98901 -13.2555 -30.5939
LeftForeArm  65.129 -78.0304 -52.1868
LeftHand  -0.0967175 4.71 14.5205
RightShoulder  3.52814 5.69544 32.4781
RightArm  -32.3216 -28.5494 -1.15293
RightForeArm  10.714 63.9354 22.9116
RightHand  -1.59875 0.978483 -28.7889
LeftUpLeg  -24.5651 16.5641 33.7846
LeftLeg  31.157 -3.0703 -1.67339
LeftFoot  -7.46198 0.282795 -7.0084
LeftToes  -6.27559e-011 -2.10356e-011 8.24929e-012
